<svg xmlns="http://www.w3.org/2000/svg" xmlns:xlink="http://www.w3.org/1999/xlink" viewBox="0 0 820 820" width="820" height="820" preserveAspectRatio="xMidYMid meet" style="width: 100%; height: 100%; transform: translate3d(0px, 0px, 0px); content-visibility: visible;" id="Circle"><defs><clipPath id="__lottie_element_447"><rect width="820" height="820" x="0" y="0"/></clipPath></defs><g clip-path="url(#__lottie_element_447)"><g transform="matrix(1,0,0,1,74.1610107421875,45.14300537109375)" opacity="1" style="display: block;"><g opacity="1" transform="matrix(1,0,0,1,338.57598876953125,338.5530090332031)"><path fill="rgb(70,70,70)" fill-opacity="1" d=" M-12.737000465393066,338.3030090332031 C-19.336999893188477,337.64801025390625 -25.937000274658203,336.9960021972656 -32.5359992980957,336.3389892578125 C-78.52100372314453,331.760986328125 -120.99199676513672,317.01800537109375 -158.552001953125,290.0920104980469 C-196.04800415039062,263.2099914550781 -233.05499267578125,235.55499267578125 -265.61700439453125,202.5800018310547 C-291.1319885253906,176.74000549316406 -312.81298828125,148.343994140625 -324.46600341796875,113.30699920654297 C-334.8900146484375,81.96800231933594 -338.32501220703125,49.733001708984375 -337.88299560546875,16.865999221801758 C-336.9320068359375,-53.803001403808594 -318.68798828125,-119.40499877929688 -284.64300537109375,-181.52099609375 C-261.0400085449219,-224.58399963378906 -225.66700744628906,-253.80099487304688 -184.5290069580078,-277.4859924316406 C-140.70599365234375,-302.7170104980469 -93.0989990234375,-317.83599853515625 -43.08000183105469,-323.510986328125 C87.2969970703125,-338.3030090332031 192.1540069580078,-291.1289978027344 272.4010009765625,-188.7270050048828 C302.02801513671875,-150.91900634765625 317.9700012207031,-106.26699829101562 328.09100341796875,-59.57500076293945 C335.78900146484375,-24.059999465942383 338.32598876953125,11.88599967956543 336.9169921875,48.154998779296875 C333.5769958496094,134.11599731445312 297.14801025390625,204.39100646972656 236.3780059814453,263.8139953613281 C196.9029998779297,302.4150085449219 149.5760040283203,323.1709899902344 95.75599670410156,331.2869873046875 C69.3479995727539,335.26800537109375 42.81399917602539,337.1050109863281 16.148000717163086,337.55999755859375 C13.850000381469727,337.5989990234375 11.557999610900879,338.0459899902344 9.262999534606934,338.3030090332031 C9.262999534606934,338.3030090332031 -12.737000465393066,338.3030090332031 -12.737000465393066,338.3030090332031z M17.538999557495117,318.989990234375 C41.79600143432617,317.9530029296875 77.86299896240234,315.99700927734375 113.34500122070312,308.39801025390625 C139.06100463867188,302.8909912109375 163.9010009765625,294.7900085449219 185.83299255371094,279.92401123046875 C216.74099731445312,258.9750061035156 242.99400329589844,233.0780029296875 264.49200439453125,202.5070037841797 C298.62200927734375,153.97300720214844 317.3789978027344,100.22200012207031 318.489990234375,40.6870002746582 C319.1130065917969,7.254000186920166 314.9700012207031,-25.73200035095215 308.4169921875,-58.479000091552734 C293.85101318359375,-131.281005859375 257.8559875488281,-190.9929962158203 199.50599670410156,-237.0050048828125 C140.96299743652344,-283.16900634765625 74.89600372314453,-308.52301025390625 -0.23600000143051147,-307.614013671875 C-26.416000366210938,-307.2959899902344 -52.321998596191406,-303.6059875488281 -77.88300323486328,-297.8210144042969 C-128.56199645996094,-286.35101318359375 -175.375,-266.5220031738281 -215.9770050048828,-233.46099853515625 C-232.32400512695312,-220.1510009765625 -248.25100708007812,-205.9040069580078 -258.76300048828125,-187.64999389648438 C-271.4330139160156,-165.6479949951172 -282.5580139160156,-142.6230010986328 -292.6830139160156,-119.31700134277344 C-313.0719909667969,-72.38600158691406 -318.3869934082031,-22.47800064086914 -318.8689880371094,28.104000091552734 C-319.135986328125,56.11899948120117 -315.0199890136719,83.52899932861328 -305.33599853515625,109.927001953125 C-293.3059997558594,142.71600341796875 -273.0679931640625,170.20199584960938 -247.51100158691406,193.31100463867188 C-222.21299743652344,216.18499755859375 -195.4199981689453,237.4250030517578 -168.9969940185547,259.031005859375 C-118.22200012207031,300.5509948730469 -59.737998962402344,320.05499267578125 17.538999557495117,318.989990234375z"/></g></g><g transform="matrix(1,0,0,1,65.75,56.70599365234375)" opacity="1" style="display: none;"><g opacity="1" transform="matrix(1,0,0,1,343.22198486328125,341.3970031738281)"><path fill="rgb(70,70,70)" fill-opacity="1" d=" M-342.97198486328125,-2.1029999256134033 C-342.3999938964844,-7.372000217437744 -341.7510070800781,-12.633999824523926 -341.2690124511719,-17.910999298095703 C-338.2120056152344,-51.40299987792969 -329.6860046386719,-83.68699645996094 -319.7869873046875,-115.6760025024414 C-305.4639892578125,-161.9600067138672 -283.3110046386719,-203.86399841308594 -250.1719970703125,-239.5330047607422 C-224.23699951171875,-267.45001220703125 -192.3509979248047,-286.9530029296875 -158.2169952392578,-302.95599365234375 C-116.98999786376953,-322.2860107421875 -73.49600219726562,-333.4159851074219 -28.145000457763672,-337.26300048828125 C17.655000686645508,-341.1470031738281 63.00400161743164,-338.9620056152344 107.5770034790039,-326.8219909667969 C157.03500366210938,-313.3529968261719 197.9949951171875,-286.1910095214844 232.81199645996094,-249.11199951171875 C287.57598876953125,-190.79400634765625 321.1369934082031,-121.94599914550781 335.0950012207031,-43.347999572753906 C341.36700439453125,-8.029000282287598 342.97198486328125,27.509000778198242 338.7030029296875,63.11800003051758 C334.8320007324219,95.41899871826172 323.45098876953125,125.40599822998047 307.7590026855469,153.72000122070312 C277.1889953613281,208.88099670410156 235.74200439453125,254.25399780273438 183.6959991455078,289.8630065917969 C165.98899841308594,301.9779968261719 145.8560028076172,308.5920104980469 125.27100372314453,313.59100341796875 C97.1729965209961,320.41400146484375 69.07599639892578,327.47100830078125 40.665000915527344,332.7340087890625 C-4.745999813079834,341.1470031738281 -48.7400016784668,334.4110107421875 -91.44200134277344,317.3630065917969 C-149.04200744628906,294.36700439453125 -199.82200622558594,261.5820007324219 -242.08700561523438,215.70599365234375 C-260.489013671875,195.72999572753906 -279.864013671875,176.6959991455078 -295.31500244140625,154.18899536132812 C-319.0639953613281,119.59400177001953 -334.12701416015625,81.55899810791016 -340.5400085449219,40.11800003051758 C-341.6780090332031,32.762001037597656 -342.1780090332031,25.30699920654297 -342.97198486328125,17.89699935913086 C-342.97198486328125,17.89699935913086 -342.97198486328125,-2.1029999256134033 -342.97198486328125,-2.1029999256134033z M9.41100025177002,-320.9649963378906 C-11.954999923706055,-318.968994140625 -33.45000076293945,-317.8609924316406 -54.6619987487793,-314.7969970703125 C-101.53700256347656,-308.0249938964844 -144.677001953125,-291.0320129394531 -185.3509979248047,-266.6610107421875 C-220.54600524902344,-245.57200622558594 -248.16799926757812,-217.66600036621094 -269.0889892578125,-182.67100524902344 C-291.1029968261719,-145.8489990234375 -304.82598876953125,-105.90499877929688 -314.1600036621094,-64.26499938964844 C-321.69500732421875,-30.648000717163086 -327.02301025390625,3.0339999198913574 -321.25299072265625,37.652000427246094 C-314.20599365234375,79.93099975585938 -299.5979919433594,119.03399658203125 -272.7300109863281,152.7209930419922 C-259.7690124511719,168.9709930419922 -245.23500061035156,183.97999572753906 -231.1959991455078,199.3520050048828 C-190.04800415039062,244.4080047607422 -141.02000427246094,277.87701416015625 -83.99500274658203,299.77899169921875 C-44.34600067138672,315.00799560546875 -3.690000057220459,322.1830139160156 38.349998474121094,313.9309997558594 C69.31700134277344,307.85101318359375 99.9469985961914,299.9700012207031 130.57899475097656,292.3009948730469 C153.51199340820312,286.5589904785156 173.7469940185547,275.2749938964844 192.2100067138672,260.4880065917969 C221.2830047607422,237.2030029296875 246.6300048828125,210.4530029296875 268.322998046875,180.2259979248047 C285.0820007324219,156.8730010986328 299.76300048828125,132.29299926757812 309.1579895019531,104.9990005493164 C324.427001953125,60.63199996948242 325.0220031738281,15.163000106811523 317.8999938964844,-30.68199920654297 C307.0840148925781,-100.29499816894531 279.7049865722656,-162.4250030517578 235.30999755859375,-217.42599487304688 C201.39700317382812,-259.4410095214844 160.1020050048828,-289.98699951171875 108.61299896240234,-306.6789855957031 C76.34600067138672,-317.1390075683594 43.0620002746582,-319.34100341796875 9.41100025177002,-320.9649963378906z"/></g></g><g transform="matrix(1,0,0,1,61.75,53.75)" opacity="1" style="display: none;"><g opacity="1" transform="matrix(1,0,0,1,342.75,340.5840148925781)"><path fill="rgb(70,70,70)" fill-opacity="1" d=" M342.5,60.66600036621094 C341.6199951171875,68.07599639892578 340.89300537109375,75.50599670410156 339.83599853515625,82.88899993896484 C334.6919860839844,118.84100341796875 321.0400085449219,151.5679931640625 300.3219909667969,181.08599853515625 C251.947998046875,250.0019989013672 189.5590057373047,300.6789855957031 108.11699676513672,325.8160095214844 C70.2490005493164,337.50299072265625 31.423999786376953,340.3340148925781 -7.940999984741211,337.8479919433594 C-76.23899841308594,333.53399658203125 -135.3179931640625,307.1199951171875 -187.30099487304688,263.4219970703125 C-217.6840057373047,237.8800048828125 -247.38400268554688,211.6529998779297 -273.1059875488281,181.26199340820312 C-299.6050109863281,149.95399475097656 -321.09698486328125,115.79299926757812 -332.6159973144531,76.01399993896484 C-337.5379943847656,59.01900100708008 -340.83099365234375,41.736000061035156 -341.572998046875,24.009000778198242 C-341.6619873046875,21.88599967956543 -342.17999267578125,19.7810001373291 -342.5,17.666000366210938 C-342.5,17.666000366210938 -342.5,3.6659998893737793 -342.5,3.6659998893737793 C-342.1629943847656,1.378000020980835 -341.7969970703125,-0.9070000052452087 -341.4949951171875,-3.200000047683716 C-339.59100341796875,-17.701000213623047 -338.5639953613281,-32.38100051879883 -335.64300537109375,-46.67399978637695 C-326.7300109863281,-90.2969970703125 -310.6090087890625,-131.3090057373047 -290.47100830078125,-171.0050048828125 C-274.7439880371094,-202.00599670410156 -253.74400329589844,-228.51400756835938 -227.56199645996094,-250.927001953125 C-168.10299682617188,-301.8269958496094 -97.71700286865234,-327.27899169921875 -21.26799964904785,-338.1610107421875 C-14.055000305175781,-339.18798828125 -6.757999897003174,-339.6239929199219 0.5,-340.3340148925781 C0.5,-340.3340148925781 24.5,-340.3340148925781 24.5,-340.3340148925781 C26.448999404907227,-340.0190124511719 28.388999938964844,-339.6449890136719 30.34600067138672,-339.39898681640625 C48.32400131225586,-337.1409912109375 66.56900024414062,-336.15899658203125 84.24099731445312,-332.447998046875 C166.57699584960938,-315.1600036621094 227.8769989013672,-268.5249938964844 270.50299072265625,-196.5749969482422 C289.7850036621094,-164.0260009765625 302.7239990234375,-128.6909942626953 315.2309875488281,-93.21800231933594 C326.7040100097656,-60.67599868774414 335.6369934082031,-27.458999633789062 339.6419982910156,6.928999900817871 C340.6400146484375,15.503000259399414 341.54998779296875,24.086999893188477 342.5,32.66600036621094 C342.5,32.66600036621094 342.5,60.66600036621094 342.5,60.66600036621094z M4.366000175476074,319.5159912109375 C54.073001861572266,319.906005859375 93.15399932861328,313.0669860839844 127.5979995727539,299.1199951171875 C187.53700256347656,274.8500061035156 235.2429962158203,234.593994140625 274.7720031738281,184.26300048828125 C297.9159851074219,154.7949981689453 314.03399658203125,121.697998046875 320.16900634765625,84.39299774169922 C325.89300537109375,49.5880012512207 323.0119934082031,14.984999656677246 316.1050109863281,-19.361000061035156 C305.135009765625,-73.90399932861328 285.2650146484375,-125.30999755859375 260.2279968261719,-174.781005859375 C242.9510040283203,-208.91700744628906 220.22799682617188,-238.99400329589844 190.00399780273438,-262.7659912109375 C130.51600646972656,-309.5570068359375 61.6619987487793,-325.6839904785156 -12.218000411987305,-319.697998046875 C-64.19499969482422,-315.48699951171875 -113.74400329589844,-299.88800048828125 -159.63499450683594,-274.57000732421875 C-208.42599487304688,-247.65199279785156 -248.26699829101562,-211.9949951171875 -274.0320129394531,-161.0260009765625 C-292.27801513671875,-124.93000030517578 -305.7659912109375,-87.5469970703125 -315.7640075683594,-48.624000549316406 C-323.7449951171875,-17.555999755859375 -325.4200134277344,13.805999755859375 -320.0840148925781,45.45100021362305 C-313.72698974609375,83.1500015258789 -297.9289855957031,116.87000274658203 -275.3349914550781,147.35400390625 C-240.38900756835938,194.50399780273438 -197.64500427246094,233.7830047607422 -149.9149932861328,267.5610046386719 C-100.68900299072266,302.39801025390625 -45.97100067138672,320.87799072265625 4.366000175476074,319.5159912109375z"/></g></g><g transform="matrix(1,0,0,1,61.83599853515625,55)" opacity="1" style="display: none;"><g opacity="1" transform="matrix(1,0,0,1,338.5820007324219,342.5)"><path fill="rgb(70,70,70)" fill-opacity="1" d=" M14.581999778747559,-342.5 C24.856000900268555,-341.7900085449219 35.14699935913086,-341.2619934082031 45.402000427246094,-340.3389892578125 C99.23799896240234,-335.489013671875 149.92599487304688,-320.927001953125 195.60299682617188,-291.1579895019531 C224.63699340820312,-272.2359924316406 246.6269989013672,-246.59800720214844 265.19000244140625,-217.73399353027344 C295.9159851074219,-169.9550018310547 314.2659912109375,-117.18699645996094 327.3399963378906,-62.38100051879883 C335.16900634765625,-29.562000274658203 339.1340026855469,3.7699999809265137 338.5199890136719,37.59000015258789 C336.8280029296875,130.96400451660156 299.45599365234375,206.9720001220703 226.75399780273438,265.3009948730469 C178.06199645996094,304.36700439453125 122.17900085449219,327.6929931640625 60.63199996948242,337.3840026855469 C47.18199920654297,339.5010070800781 33.5099983215332,340.2120056152344 19.944000244140625,341.60699462890625 C18.145000457763672,341.7929992675781 16.368999481201172,342.1969909667969 14.581999778747559,342.5 C14.581999778747559,342.5 -6.418000221252441,342.5 -6.418000221252441,342.5 C-13.699999809265137,341.9639892578125 -20.979000091552734,341.37298583984375 -28.264999389648438,340.9010009765625 C-66.3239974975586,338.43701171875 -101.18699645996094,325.8429870605469 -133.3800048828125,306.135009765625 C-184.04600524902344,275.1159973144531 -229.53500366210938,238.01800537109375 -265.40899658203125,190.0260009765625 C-295.3179931640625,150.01300048828125 -316.88299560546875,105.98799896240234 -331.739990234375,58.30099868774414 C-339.67999267578125,32.81399917602539 -339.24200439453125,6.913000106811523 -337.6239929199219,-18.753000259399414 C-329.47601318359375,-148.03900146484375 -230.48199462890625,-287.5249938964844 -83.54900360107422,-329.906005859375 C-59.108001708984375,-336.95599365234375 -34.1870002746582,-340.7430114746094 -8.77299976348877,-341.4909973144531 C-4.98199987411499,-341.60198974609375 -1.2029999494552612,-342.15301513671875 2.5820000171661377,-342.5 C2.5820000171661377,-342.5 14.581999778747559,-342.5 14.581999778747559,-342.5z M-319.06298828125,2.697999954223633 C-317.9020080566406,15.213000297546387 -319.4159851074219,31.356000900268555 -314.88800048828125,47.22600173950195 C-301.4049987792969,94.48699951171875 -280.260986328125,137.84800720214844 -251.0749969482422,177.39999389648438 C-220.25999450683594,219.16000366210938 -181.12399291992188,251.80299377441406 -138.572998046875,280.66900634765625 C-108.72100067138672,300.9200134277344 -76.08999633789062,314.6759948730469 -40.24300003051758,320.1679992675781 C-6.455999851226807,325.343994140625 27.33799934387207,323.2980041503906 60.8120002746582,318.2239990234375 C120.96099853515625,309.1080017089844 174.49400329589844,284.5669860839844 220.93600463867188,245.20799255371094 C264.34600830078125,208.41799926757812 295.3179931640625,163.27000427246094 310.1709899902344,107.88999938964844 C320.9849853515625,67.56500244140625 321.6719970703125,26.55299949645996 316.4289855957031,-14.585000038146973 C308.4330139160156,-77.33200073242188 289.0469970703125,-136.35899353027344 258.40899658203125,-191.82699584960938 C228.98899841308594,-245.08999633789062 187.10000610351562,-283.3190002441406 129.0749969482422,-303.1809997558594 C97.03399658203125,-314.14898681640625 64.07499694824219,-319.86199951171875 30.356000900268555,-322.0530090332031 C-7.015999794006348,-324.48199462890625 -43.87200164794922,-322.27099609375 -79.83699798583984,-311.08599853515625 C-164.1529998779297,-284.864013671875 -228.16000366210938,-232.61500549316406 -273.114990234375,-157.33799743652344 C-301.75201416015625,-109.38500213623047 -319.9930114746094,-57.749000549316406 -319.06298828125,2.697999954223633z"/></g></g><g transform="matrix(1,0,0,1,61.75,53.75)" opacity="1" style="display: none;"><g opacity="1" transform="matrix(1,0,0,1,342.75,340.5840148925781)"><path fill="rgb(70,70,70)" fill-opacity="1" d=" M342.5,60.66600036621094 C341.6199951171875,68.07599639892578 340.89300537109375,75.50599670410156 339.83599853515625,82.88899993896484 C334.6919860839844,118.84100341796875 321.0400085449219,151.5679931640625 300.3219909667969,181.08599853515625 C251.947998046875,250.0019989013672 189.5590057373047,300.6789855957031 108.11699676513672,325.8160095214844 C70.2490005493164,337.50299072265625 31.423999786376953,340.3340148925781 -7.940999984741211,337.8479919433594 C-76.23899841308594,333.53399658203125 -135.3179931640625,307.1199951171875 -187.30099487304688,263.4219970703125 C-217.6840057373047,237.8800048828125 -247.38400268554688,211.6529998779297 -273.1059875488281,181.26199340820312 C-299.6050109863281,149.95399475097656 -321.09698486328125,115.79299926757812 -332.6159973144531,76.01399993896484 C-337.5379943847656,59.01900100708008 -340.83099365234375,41.736000061035156 -341.572998046875,24.009000778198242 C-341.6619873046875,21.88599967956543 -342.17999267578125,19.7810001373291 -342.5,17.666000366210938 C-342.5,17.666000366210938 -342.5,3.6659998893737793 -342.5,3.6659998893737793 C-342.1629943847656,1.378000020980835 -341.7969970703125,-0.9070000052452087 -341.4949951171875,-3.200000047683716 C-339.59100341796875,-17.701000213623047 -338.5639953613281,-32.38100051879883 -335.64300537109375,-46.67399978637695 C-326.7300109863281,-90.2969970703125 -310.6090087890625,-131.3090057373047 -290.47100830078125,-171.0050048828125 C-274.7439880371094,-202.00599670410156 -253.74400329589844,-228.51400756835938 -227.56199645996094,-250.927001953125 C-168.10299682617188,-301.8269958496094 -97.71700286865234,-327.27899169921875 -21.26799964904785,-338.1610107421875 C-14.055000305175781,-339.18798828125 -6.757999897003174,-339.6239929199219 0.5,-340.3340148925781 C0.5,-340.3340148925781 24.5,-340.3340148925781 24.5,-340.3340148925781 C26.448999404907227,-340.0190124511719 28.388999938964844,-339.6449890136719 30.34600067138672,-339.39898681640625 C48.32400131225586,-337.1409912109375 66.56900024414062,-336.15899658203125 84.24099731445312,-332.447998046875 C166.57699584960938,-315.1600036621094 227.8769989013672,-268.5249938964844 270.50299072265625,-196.5749969482422 C289.7850036621094,-164.0260009765625 302.7239990234375,-128.6909942626953 315.2309875488281,-93.21800231933594 C326.7040100097656,-60.67599868774414 335.6369934082031,-27.458999633789062 339.6419982910156,6.928999900817871 C340.6400146484375,15.503000259399414 341.54998779296875,24.086999893188477 342.5,32.66600036621094 C342.5,32.66600036621094 342.5,60.66600036621094 342.5,60.66600036621094z M4.366000175476074,319.5159912109375 C54.073001861572266,319.906005859375 93.15399932861328,313.0669860839844 127.5979995727539,299.1199951171875 C187.53700256347656,274.8500061035156 235.2429962158203,234.593994140625 274.7720031738281,184.26300048828125 C297.9159851074219,154.7949981689453 314.03399658203125,121.697998046875 320.16900634765625,84.39299774169922 C325.89300537109375,49.5880012512207 323.0119934082031,14.984999656677246 316.1050109863281,-19.361000061035156 C305.135009765625,-73.90399932861328 285.2650146484375,-125.30999755859375 260.2279968261719,-174.781005859375 C242.9510040283203,-208.91700744628906 220.22799682617188,-238.99400329589844 190.00399780273438,-262.7659912109375 C130.51600646972656,-309.5570068359375 61.6619987487793,-325.6839904785156 -12.218000411987305,-319.697998046875 C-64.19499969482422,-315.48699951171875 -113.74400329589844,-299.88800048828125 -159.63499450683594,-274.57000732421875 C-208.42599487304688,-247.65199279785156 -248.26699829101562,-211.9949951171875 -274.0320129394531,-161.0260009765625 C-292.27801513671875,-124.93000030517578 -305.7659912109375,-87.5469970703125 -315.7640075683594,-48.624000549316406 C-323.7449951171875,-17.555999755859375 -325.4200134277344,13.805999755859375 -320.0840148925781,45.45100021362305 C-313.72698974609375,83.1500015258789 -297.9289855957031,116.87000274658203 -275.3349914550781,147.35400390625 C-240.38900756835938,194.50399780273438 -197.64500427246094,233.7830047607422 -149.9149932861328,267.5610046386719 C-100.68900299072266,302.39801025390625 -45.97100067138672,320.87799072265625 4.366000175476074,319.5159912109375z"/></g></g><g transform="matrix(1,0,0,1,65.75,56.70599365234375)" opacity="1" style="display: none;"><g opacity="1" transform="matrix(1,0,0,1,343.22198486328125,341.3970031738281)"><path fill="rgb(70,70,70)" fill-opacity="1" d=" M-342.97198486328125,-2.1029999256134033 C-342.3999938964844,-7.372000217437744 -341.7510070800781,-12.633999824523926 -341.2690124511719,-17.910999298095703 C-338.2120056152344,-51.40299987792969 -329.6860046386719,-83.68699645996094 -319.7869873046875,-115.6760025024414 C-305.4639892578125,-161.9600067138672 -283.3110046386719,-203.86399841308594 -250.1719970703125,-239.5330047607422 C-224.23699951171875,-267.45001220703125 -192.3509979248047,-286.9530029296875 -158.2169952392578,-302.95599365234375 C-116.98999786376953,-322.2860107421875 -73.49600219726562,-333.4159851074219 -28.145000457763672,-337.26300048828125 C17.655000686645508,-341.1470031738281 63.00400161743164,-338.9620056152344 107.5770034790039,-326.8219909667969 C157.03500366210938,-313.3529968261719 197.9949951171875,-286.1910095214844 232.81199645996094,-249.11199951171875 C287.57598876953125,-190.79400634765625 321.1369934082031,-121.94599914550781 335.0950012207031,-43.347999572753906 C341.36700439453125,-8.029000282287598 342.97198486328125,27.509000778198242 338.7030029296875,63.11800003051758 C334.8320007324219,95.41899871826172 323.45098876953125,125.40599822998047 307.7590026855469,153.72000122070312 C277.1889953613281,208.88099670410156 235.74200439453125,254.25399780273438 183.6959991455078,289.8630065917969 C165.98899841308594,301.9779968261719 145.8560028076172,308.5920104980469 125.27100372314453,313.59100341796875 C97.1729965209961,320.41400146484375 69.07599639892578,327.47100830078125 40.665000915527344,332.7340087890625 C-4.745999813079834,341.1470031738281 -48.7400016784668,334.4110107421875 -91.44200134277344,317.3630065917969 C-149.04200744628906,294.36700439453125 -199.82200622558594,261.5820007324219 -242.08700561523438,215.70599365234375 C-260.489013671875,195.72999572753906 -279.864013671875,176.6959991455078 -295.31500244140625,154.18899536132812 C-319.0639953613281,119.59400177001953 -334.12701416015625,81.55899810791016 -340.5400085449219,40.11800003051758 C-341.6780090332031,32.762001037597656 -342.1780090332031,25.30699920654297 -342.97198486328125,17.89699935913086 C-342.97198486328125,17.89699935913086 -342.97198486328125,-2.1029999256134033 -342.97198486328125,-2.1029999256134033z M9.41100025177002,-320.9649963378906 C-11.954999923706055,-318.968994140625 -33.45000076293945,-317.8609924316406 -54.6619987487793,-314.7969970703125 C-101.53700256347656,-308.0249938964844 -144.677001953125,-291.0320129394531 -185.3509979248047,-266.6610107421875 C-220.54600524902344,-245.57200622558594 -248.16799926757812,-217.66600036621094 -269.0889892578125,-182.67100524902344 C-291.1029968261719,-145.8489990234375 -304.82598876953125,-105.90499877929688 -314.1600036621094,-64.26499938964844 C-321.69500732421875,-30.648000717163086 -327.02301025390625,3.0339999198913574 -321.25299072265625,37.652000427246094 C-314.20599365234375,79.93099975585938 -299.5979919433594,119.03399658203125 -272.7300109863281,152.7209930419922 C-259.7690124511719,168.9709930419922 -245.23500061035156,183.97999572753906 -231.1959991455078,199.3520050048828 C-190.04800415039062,244.4080047607422 -141.02000427246094,277.87701416015625 -83.99500274658203,299.77899169921875 C-44.34600067138672,315.00799560546875 -3.690000057220459,322.1830139160156 38.349998474121094,313.9309997558594 C69.31700134277344,307.85101318359375 99.9469985961914,299.9700012207031 130.57899475097656,292.3009948730469 C153.51199340820312,286.5589904785156 173.7469940185547,275.2749938964844 192.2100067138672,260.4880065917969 C221.2830047607422,237.2030029296875 246.6300048828125,210.4530029296875 268.322998046875,180.2259979248047 C285.0820007324219,156.8730010986328 299.76300048828125,132.29299926757812 309.1579895019531,104.9990005493164 C324.427001953125,60.63199996948242 325.0220031738281,15.163000106811523 317.8999938964844,-30.68199920654297 C307.0840148925781,-100.29499816894531 279.7049865722656,-162.4250030517578 235.30999755859375,-217.42599487304688 C201.39700317382812,-259.4410095214844 160.1020050048828,-289.98699951171875 108.61299896240234,-306.6789855957031 C76.34600067138672,-317.1390075683594 43.0620002746582,-319.34100341796875 9.41100025177002,-320.9649963378906z"/></g></g></g></svg>