<svg viewBox="0 0 124 124" fill="none" xmlns="http://www.w3.org/2000/svg">
  <path d="M109.372 68.076C109.627 66.092 109.819 64.108 109.819 62C109.819 59.892 109.627 57.908 109.372 55.924L122.821 45.694C124.032 44.764 124.351 43.09 123.586 41.726L110.838 20.274C110.074 18.91 108.353 18.414 106.95 18.91L91.0792 25.11C87.7648 22.63 84.1954 20.584 80.3073 19.034L77.8852 2.604C77.6939 1.116 76.3554 0 74.7619 0H49.2662C47.6727 0 46.3342 1.116 46.143 2.604L43.7209 19.034C39.8328 20.584 36.2634 22.692 32.949 25.11L17.0779 18.91C15.6119 18.352 13.9546 18.91 13.1898 20.274L0.441915 41.726C-0.386696 43.09 -0.00425977 44.764 1.20679 45.694L14.6558 55.924C14.4008 57.908 14.2096 59.954 14.2096 62C14.2096 64.046 14.4008 66.092 14.6558 68.076L1.20679 78.306C-0.00425977 79.236 -0.322957 80.91 0.441915 82.274L13.1898 103.726C13.9546 105.09 15.6756 105.586 17.0779 105.09L32.949 98.89C36.2634 101.37 39.8328 103.416 43.7209 104.966L46.143 121.396C46.3342 122.884 47.6727 124 49.2662 124H74.7619C76.3554 124 77.6939 122.884 77.8852 121.396L80.3073 104.966C84.1954 103.416 87.7648 101.308 91.0792 98.89L106.95 105.09C108.416 105.648 110.074 105.09 110.838 103.726L123.586 82.274C124.351 80.91 124.032 79.236 122.821 78.306L109.372 68.076ZM62.0141 83.7C49.7124 83.7 39.7053 73.966 39.7053 62C39.7053 50.034 49.7124 40.3 62.0141 40.3C74.3158 40.3 84.3228 50.034 84.3228 62C84.3228 73.966 74.3158 83.7 62.0141 83.7Z" fill="#909090"/>
</svg>
