<svg xmlns="http://www.w3.org/2000/svg" xmlns:xlink="http://www.w3.org/1999/xlink" viewBox="0 0 480 480" width="480" height="480" preserveAspectRatio="xMidYMid meet" style="width: 100%; height: 100%; transform: translate3d(0px, 0px, 0px); content-visibility: visible;" id="Pulse Loader"><defs><clipPath id="__lottie_element_3052"><rect width="480" height="480" x="0" y="0"/></clipPath></defs><g clip-path="url(#__lottie_element_3052)"><g transform="matrix(0.6932308077812195,0,0,0.6932308077812195,30.352142333984375,31.016143798828125)" opacity="0.15009999999997675" style="display: block;"><g opacity="1" transform="matrix(1,0,0,1,300.6310119628906,300.1499938964844)"><path stroke-linecap="butt" stroke-linejoin="miter" fill-opacity="0" stroke-miterlimit="4" stroke="rgb(253,134,163)" stroke-opacity="1" stroke-width="8.537668021963228" d=" M300.0010070800781,0 C300.0010070800781,165.68600463867188 165.68600463867188,300 0.0010000000474974513,300 C-165.68499755859375,300 -299.9989929199219,165.68600463867188 -299.9989929199219,0 C-299.9989929199219,-165.68600463867188 -165.68499755859375,-300 0.0010000000474974513,-300 C165.68600463867188,-300 300.0010070800781,-165.68600463867188 300.0010070800781,0z"/></g></g><g transform="matrix(0.20525503158569336,0,0,0.20525503158569336,176.98886108398438,177.65286254882812)" opacity="1" style="display: block;"><g opacity="1" transform="matrix(1,0,0,1,300.6310119628906,300.1499938964844)"><path fill="rgb(0,0,0)" fill-opacity="1" d=" M300.0010070800781,0 C300.0010070800781,165.68600463867188 165.68600463867188,300 0.0010000000474974513,300 C-165.68499755859375,300 -299.9989929199219,165.68600463867188 -299.9989929199219,0 C-299.9989929199219,-165.68600463867188 -165.68499755859375,-300 0.0010000000474974513,-300 C165.68600463867188,-300 300.0010070800781,-165.68600463867188 300.0010070800781,0z"/></g></g></g></svg>